<?xml version="1.0" encoding="utf-8"?>
<!-- Generator: Adobe Illustrator 23.0.1, SVG Export Plug-In . SVG Version: 6.00 Build 0)  -->
<svg version="1.0" id="Layer_1" xmlns="http://www.w3.org/2000/svg" xmlns:xlink="http://www.w3.org/1999/xlink" x="0px" y="0px"
	 viewBox="0 0 1009.3 377.3" style="enable-background:new 0 0 1009.3 377.3;" xml:space="preserve">
<style type="text/css">
	.st0{fill:#58595B;}
	.st1{fill-rule:evenodd;clip-rule:evenodd;fill:#1DB7CA;}
	.st2{fill:#1DB7CA;}
	.st3{fill-rule:evenodd;clip-rule:evenodd;fill:#1EB6C7;}
</style>
<g>
	<g>
		<g>
			<path class="st0" d="M197.7,326.9h12.6v4.7h-17.8v-41.5h5.2V326.9z"/>
			<path class="st0" d="M226.4,331.6h-5.2v-41.5h5.2V331.6z"/>
			<path class="st0" d="M247,294.8v11.7h14.4v4.7H247v20.4h-5.2v-41.5h20.1v4.7H247z"/>
			<path class="st0" d="M275.7,290.1H298v4.7h-17.1v11.6h16.6v4.7h-16.6v15.7H298v4.7h-22.3V290.1z"/>
			<path class="st0" d="M330.5,298c-1.5-2.6-3.5-3.9-6.7-3.9c-3.3,0-6.9,2.3-6.9,5.9c0,3.2,3.2,5,5.8,5.9l3,1.2
				c5.9,2.3,10.3,5.6,10.3,12.5c0,7.5-5.8,12.9-13.3,12.9c-6.7,0-12-5-12.8-11.6l5.2-1.1c-0.1,4.6,3.6,7.9,8,7.9
				c4.5,0,7.7-3.7,7.7-8.1c0-4.5-3.6-6.4-7.2-7.9l-2.9-1.2c-4.7-2-9-4.7-9-10.5c0-6.7,5.9-10.7,12.2-10.7c4.6,0,8.4,2.3,10.7,6.3
				L330.5,298z"/>
			<path class="st0" d="M360.5,331.6h-5.2v-36.8h-9.9v-4.7h24.9v4.7h-9.9V331.6z"/>
			<path class="st0" d="M377.8,290.1h5.9l10.2,17.7l10.2-17.7h5.9l-13.5,23.5v18.1h-5.2v-18.1L377.8,290.1z"/>
			<path class="st0" d="M426.6,326.9h12.6v4.7h-17.8v-41.5h5.2V326.9z"/>
			<path class="st0" d="M450.3,290.1h22.3v4.7h-17.1v11.6h16.6v4.7h-16.6v15.7h17.1v4.7h-22.3V290.1z"/>
			<path class="st0" d="M523,290.1v26.4c0,8-1.5,16-11.2,16c-2.4,0-4.5-0.6-6.5-1.8l2.6-4.4c1.2,0.9,2.6,1.4,4.1,1.4
				c5.9,0,5.8-6.9,5.8-11.2v-26.4H523z"/>
			<path class="st0" d="M537.9,290.1h22.3v4.7h-17.1v11.6h16.6v4.7h-16.6v15.7h17.1v4.7h-22.3V290.1z"/>
			<path class="st0" d="M586.9,319.8l11.7-30.6l11.7,30.6l11.6-29.7h5.6l-17.2,43.2l-11.7-30.5l-11.7,30.5l-17.2-43.2h5.6
				L586.9,319.8z"/>
			<path class="st0" d="M638.6,290.1h22.3v4.7h-17.1v11.6h16.6v4.7h-16.6v15.7h17.1v4.7h-22.3V290.1z"/>
			<path class="st0" d="M680.2,326.9h12.6v4.7H675v-41.5h5.2V326.9z"/>
			<path class="st0" d="M709.1,326.9h12.6v4.7h-17.8v-41.5h5.2V326.9z"/>
			<path class="st0" d="M732.8,290.1h22.3v4.7H738v11.6h16.6v4.7H738v15.7h17.1v4.7h-22.3V290.1z"/>
			<path class="st0" d="M795,331.6h-6.3L776.5,314h-2.1v17.6h-5.2v-41.5h6.3c3.7,0,7.7,0.1,11,1.9c3.5,2,5.5,5.9,5.5,9.9
				c0,5.9-4,10.9-10,11.6L795,331.6z M774.4,309.8h1.7c5.3,0,11-1,11-7.6c0-6.5-6.2-7.4-11.3-7.4h-1.4V309.8z"/>
			<path class="st0" d="M801.4,290.1h5.9l10.2,17.7l10.2-17.7h5.9l-13.5,23.5v18.1h-5.2v-18.1L801.4,290.1z"/>
		</g>
	</g>
	<path class="st1" d="M239.7,197.6L224,236.4l0,0c-0.2,0.5-0.4,0.9-0.7,1.4c-0.3,0.4-0.7,0.8-1.1,1.2l0,0c-0.5,0.4-1.1,0.7-1.7,1
		c-0.6,0.2-1.2,0.3-1.9,0.3h-7.4h-3l1.1-2.8L264,103.8l0.5-1.3h1.3h9.7h1.3l0.5,1.3l54.7,133.6l1.1,2.8h-3h-7.5
		c-0.6,0-1.2-0.1-1.8-0.3v0c-0.6-0.2-1.1-0.5-1.6-0.9l0,0c-0.4-0.3-0.8-0.8-1.2-1.2c-0.3-0.4-0.6-0.9-0.8-1.5l0,0l-12-29.5l-3.8-9.3
		v0l-2.9-7.1l-27.3-67.5l0,0c-0.2-0.5-0.5-1.1-0.7-1.8l-0.1-0.2l-0.1,0.2l0,0c-0.2,0.6-0.4,1.3-0.7,1.9l0,0.1l-27.3,67.4l0,0
		L239.7,197.6L239.7,197.6z"/>
	<path class="st1" d="M349.3,238.2V104.6v-2h2h4.7c0.5,0,1,0,1.5,0.1c0.5,0.1,1,0.2,1.4,0.4l0,0c0.5,0.2,0.9,0.5,1.4,0.9l0,0
		c0.4,0.3,0.7,0.7,1.1,1.2l0,0l82.6,110.6V104.6v-2h2h8.4h2v2v133.6v2h-2h-4.6c-1.1,0-2-0.2-2.9-0.7c-0.8-0.4-1.6-1.1-2.2-2
		l-82.9-110.8v111.4v2h-2h-8.4h-2V238.2z"/>
	<polygon class="st1" points="635.5,238.2 635.5,104.6 635.5,102.5 637.6,102.5 717.6,102.5 719.6,102.5 719.6,104.6 719.6,112.6 
		719.6,114.6 717.6,114.6 649.2,114.6 649.2,164.4 705.8,164.4 707.8,164.4 707.8,166.4 707.8,174.5 707.8,176.5 705.8,176.5 
		649.2,176.5 649.2,228.1 717.6,228.1 719.6,228.1 719.6,230.2 719.6,238.2 719.6,240.2 717.6,240.2 637.6,240.2 635.5,240.2 	"/>
	<path class="st2" d="M790.6,187.6l-3.9-4.9l0-0.1c-0.4-0.6-0.9-1.1-1.3-1.5c-0.4-0.4-0.8-0.6-1.3-0.8l0,0c-0.4-0.2-1-0.4-1.8-0.5v0
		c-0.8-0.1-1.9-0.2-3.1-0.2h-15.5v58.5v2h-2H752h-2v-2V104.6v-2h2h34.1c0.9,0,1.9,0,3.1,0c1.1,0,2.1,0.1,3,0.1
		c6.4,0.4,12.1,1.3,17,2.8c5,1.5,9.3,3.7,12.8,6.4c4.1,3.2,7.2,7.1,9.2,11.8c2,4.6,3,10,3,16c0,2.7-0.2,5.2-0.7,7.7
		c-0.5,2.5-1.2,4.8-2.1,7h0c-0.9,2.2-2.1,4.3-3.4,6.3c-1.4,2-2.9,3.8-4.7,5.5l0,0c-1.8,1.7-3.7,3.2-5.8,4.6
		c-2.1,1.4-4.4,2.6-6.8,3.6l0,0c-2.4,1.1-5,1.9-7.8,2.6c-1.3,0.3-2.7,0.6-4.2,0.9c0.3,0.4,0.6,0.8,0.9,1.2l46.1,57.9l2.6,3.3h-4.2
		h-8.4c-0.6,0-1.2-0.1-1.8-0.2c-0.6-0.1-1.1-0.3-1.7-0.6h0c-0.5-0.3-1.1-0.6-1.5-1.1c-0.5-0.4-0.9-0.9-1.3-1.5l0,0L790.6,187.6
		L790.6,187.6z M763.6,168.6h21.2c1.3,0,2.5,0,3.6-0.1c1.2-0.1,2.3-0.2,3.4-0.3c1.4-0.2,2.9-0.4,4.3-0.7c1.4-0.3,2.7-0.6,4-1
		c2.2-0.7,4.3-1.5,6.2-2.4c1.8-0.9,3.5-2,5-3.3c1.5-1.2,2.8-2.6,4-4c1.1-1.5,2.1-3.1,2.9-4.8c0.8-1.7,1.4-3.6,1.8-5.5
		c0.4-1.9,0.6-4,0.6-6.2c0-4.5-0.7-8.4-2.2-11.6c-1.4-3.2-3.5-5.8-6.4-7.9c-2.4-1.7-5.2-3.1-8.5-4.2c-3.4-1.1-7.2-1.8-11.6-2.1h0
		c-1-0.1-2-0.1-2.9-0.2c-0.9,0-1.9,0-3,0h-22.4V168.6z"/>
	<polygon class="st1" points="866.3,238.2 866.3,104.6 866.3,102.5 868.3,102.5 948.4,102.5 950.4,102.5 950.4,104.6 950.4,112.6 
		950.4,114.6 948.4,114.6 879.9,114.6 879.9,164.4 936.6,164.4 938.6,164.4 938.6,166.4 938.6,174.5 938.6,176.5 936.6,176.5 
		879.9,176.5 879.9,228.1 948.4,228.1 950.4,228.1 950.4,230.2 950.4,238.2 950.4,240.2 948.4,240.2 868.3,240.2 866.3,240.2 	"/>
	<path class="st1" d="M597.9,131.1c2.2,3.6,4.2,7.6,5.8,11.8c1.6,4.2,2.8,8.7,3.6,13.5c0.8,4.7,1.2,9.7,1.2,15
		c0,5.3-0.4,10.3-1.2,15c-0.8,4.8-2,9.3-3.6,13.5c-1.6,4.2-3.5,8.2-5.8,11.8c-2.3,3.6-4.8,7-7.7,10c-2.9,3-6.1,5.7-9.6,8
		c-3.5,2.3-7.2,4.2-11.2,5.8l0,0c-4,1.6-8.3,2.8-12.7,3.6c-4.4,0.8-9.1,1.2-14,1.2h-48.6h-2v-2v-27v-2h2h9.6h2v2v16.9h36.9
		c3.9,0,7.7-0.3,11.2-0.9c3.5-0.6,6.9-1.6,10.1-2.9c3.2-1.3,6.1-2.8,8.8-4.6c2.7-1.8,5.2-4,7.4-6.3c2.2-2.4,4.2-5.1,6-8
		c1.7-3,3.2-6.2,4.5-9.7c1.3-3.5,2.2-7.3,2.8-11.3c0.6-4,0.9-8.3,0.9-13c0-4.6-0.3-8.9-0.9-12.9c-0.6-4-1.6-7.8-2.8-11.3
		c-1.2-3.5-2.7-6.7-4.5-9.7c-1.7-2.9-3.7-5.6-6-8c-2.2-2.4-4.7-4.5-7.4-6.3c-2.7-1.8-5.7-3.4-8.8-4.7l0,0c-3.2-1.3-6.6-2.2-10.1-2.9
		c-3.5-0.6-7.3-1-11.2-1h-36.9v16.9v2h-2h-9.6h-2v-2v-27v-2h2h48.6c4.9,0,9.5,0.4,14,1.2c4.5,0.8,8.7,2,12.7,3.6
		c4,1.6,7.8,3.5,11.2,5.8c3.5,2.3,6.7,5,9.5,8C593.1,124.1,595.6,127.4,597.9,131.1"/>
	<path class="st3" d="M126.9,91.6c12.6-3.5,25-3.3,36.4-0.2c12.2,3.3,23.2,9.9,31.8,18.6l3.6,3.6c0.4,0.4,0.5,1.4-0.7,3
		c-0.5,0.7-1.3,1.7-2.3,3.1c-0.4,0.5-0.8,1-1.6,1.3c-0.7,0.4-1.7,0.5-2.8,0.2c-1.1-0.3-2.1-1-3-1.6c-0.3-0.2-0.6-0.4-0.9-0.6
		c-1.6-0.9-3-1.8-4.3-2.5c-1.3-0.7-2.5-1.4-3.6-2c-2.5-1.3-4.6-2.2-6.9-3.1c-2.3-0.8-4.7-1.5-7.8-2.3c-5.1-1.3-10.7-1.8-16.3-1.4
		c-6,0.4-11.9,1.6-17.2,3.6l-1.8-1l-3.5-17.3L126.9,91.6z M200.4,218.6l-3.7-4c-0.8-0.9-1.8-1.2-2.7-1.2c-1.4,0-2.6,0.9-2.9,1.1
		c-1.6,1.4-4,3.5-6.7,5.5c-2.7,2-5.8,3.9-8.8,5.2c-6.7,2.9-14.7,4.3-22.6,4.5c-8.1,0.2-16-1-22.4-3.4c-3.2-1.2-6.3-2.8-9-4.6
		c-12.2-7.9-20.1-20.7-23.6-34.9c-3.5-14.3-2.6-30.1,2.7-43.9c1.6-4.1,3.6-8.1,5.9-11.7l-0.6-1.9l-17.2-7.9l-1.7,0.5
		c-1.4,2.2-2.6,4.5-3.7,6.8c-1.1,2.3-2.1,4.7-3,7.1c-2.7,7.5-4.2,15.6-4.6,23.7c-0.4,8.4,0.4,16.9,2.2,24.8
		c3.5,14.7,10.7,28.2,21.2,38.3c9.8,9.4,22.3,16,37.2,18c12.4,1.7,24.3,0.8,34.9-2.3c10.8-3.2,20.2-8.7,27.5-16.1l0.2-0.2v0l0.5-0.4
		C200.5,220.5,201.2,219.5,200.4,218.6 M97.3,63.4c0-0.1,0-0.2,0-0.3V51.1c0-4.4,8.5-4.5,10.3-4.7c1.7-0.3,5.1-0.9,5.1-0.9
		c-0.9,9.6-9.3,13.6-12.6,15.2C98.2,61.6,97.5,63.1,97.3,63.4z M112.8,68.5c-0.6-5.6-3.9-9.2-6.1-10.9c-2.3,1.8-4.6,3-6.1,3.7
		l-0.3,0.1c-1.7,0.9-2.4,2.2-2.5,2.3l-0.4,0.8c0.7,1.5,2.5,2.5,5.4,3.1c1.1,0.2,2.9,0.5,5.3,0.5C109.6,68,112.7,68.5,112.8,68.5
		L112.8,68.5L112.8,68.5z M99.2,106.5c5.1-2.5,18.1-8.7,19.5-23.5c0,0-5.2,0.9-7.9,1.3c-2.7,0.4-15.8,0.6-15.9,7.3v18.5
		c0,0.1,0,0.3,0,0.5C95.1,110.2,96.3,107.9,99.2,106.5z M118.8,118.5l-0.1,0c0,0-5-0.7-6.9-0.7c-3.7,0-6.5-0.4-8.2-0.7
		c-4.5-0.9-7.3-2.5-8.4-4.8l0.6-1.2c0.1-0.2,1.2-2.3,3.8-3.6l0.4-0.2c2.3-1.1,5.9-2.9,9.4-5.7c3.3,2.7,8.5,8.2,9.4,16.9L118.8,118.5
		z M63.1,88.1c4.1-2,14.4-6.9,15.5-18.7c0,0-4.2,0.7-6.3,1.1c-2.1,0.4-12.6,0.5-12.6,5.8V91c0,0.1,0,0.2,0,0.4
		C59.8,91.1,60.8,89.3,63.1,88.1z M78.8,97.7c-0.7-6.9-4.8-11.3-7.5-13.5c-2.8,2.2-5.6,3.7-7.5,4.6l-0.3,0.2c-2.1,1-2.9,2.7-3,2.9
		L60,92.7c0.9,1.8,3.1,3.1,6.7,3.8c1.3,0.3,3.5,0.6,6.5,0.6C74.7,97.1,78.6,97.7,78.8,97.7L78.8,97.7L78.8,97.7z"/>
</g>
</svg>
