<svg width="32" height="32" viewBox="0 0 32 32" fill="none" xmlns="http://www.w3.org/2000/svg">
<path d="M32 15.9989C32 7.16301 24.8373 0 15.9999 0C7.16317 0 0 7.16301 0 15.9989C0 24.835 7.16317 32 15.9999 32C24.837 32 32 24.835 32 15.9989Z" fill="#3B5998"/>
<path d="M17.4097 12.21V10.6945C17.4097 9.95627 17.9024 9.78381 18.2473 9.78381C18.5933 9.78381 20.3742 9.78381 20.3742 9.78381V6.53831L17.4456 6.52539C14.195 6.52539 13.4568 8.94737 13.4568 10.4979V12.2102H11.5776V16.0014H13.4731C13.4731 20.297 13.4731 25.4772 13.4731 25.4772H17.2631C17.2631 25.4772 17.2631 20.2445 17.2631 16.0014H20.0761L20.4221 12.2102H17.4097V12.21Z" fill="white"/>
</svg>
