<svg width="32" height="32" viewBox="0 0 32 32" fill="none" xmlns="http://www.w3.org/2000/svg">
<g clip-path="url(#clip0_1137_3928)">
<path d="M15.9982 0C7.16345 0 0 7.16345 0 16.0018C0 24.8368 7.16345 32 15.9982 32C24.8334 32 31.9967 24.8368 31.9967 16.0018C31.9969 7.16345 24.8334 0 15.9982 0Z" fill="url(#paint0_radial_1137_3928)"/>
<path d="M15.9985 21.7128C19.1491 21.7128 21.712 19.1508 21.712 16.0017C21.712 12.8507 19.1489 10.2869 15.9985 10.2869C12.8481 10.2869 10.2852 12.8505 10.2852 16.0017C10.2852 19.1508 12.8483 21.7128 15.9985 21.7128ZM11.671 16.0017C11.671 13.6137 13.6122 11.6709 15.9985 11.6709C18.3847 11.6709 20.3262 13.6135 20.3262 16.0017C20.3262 18.388 18.3847 20.3294 15.9985 20.3294C13.6122 20.3294 11.671 18.3878 11.671 16.0017Z" fill="white"/>
<path d="M21.6964 25.4902H10.3003C8.16146 25.4902 6.42139 23.7501 6.42139 21.6113V10.3889C6.42139 8.25008 8.16146 6.51001 10.3003 6.51001H21.6964C23.8353 6.51001 25.5753 8.24986 25.5753 10.3889V21.6113C25.5753 23.7501 23.8353 25.4902 21.6964 25.4902ZM10.3003 7.92566C8.94205 7.92566 7.83659 9.03089 7.83659 10.3891V21.6115C7.83659 22.9697 8.94182 24.075 10.3003 24.075H21.6964C23.0547 24.075 24.1599 22.9697 24.1599 21.6115V10.3891C24.1599 9.03089 23.0547 7.92566 21.6964 7.92566H10.3003Z" fill="white"/>
<path d="M21.7893 9.6355C21.2897 9.6355 20.8872 10.0423 20.8872 10.5385C20.8872 11.0378 21.2897 11.4394 21.7893 11.4394C22.2853 11.4394 22.692 11.0378 22.692 10.5385C22.692 10.0423 22.2853 9.6355 21.7893 9.6355Z" fill="white"/>
</g>
<defs>
<radialGradient id="paint0_radial_1137_3928" cx="0" cy="0" r="1" gradientUnits="userSpaceOnUse" gradientTransform="translate(6.45209 28.8389) rotate(-41.7567) scale(47.2785 47.2834)">
<stop stop-color="#F9ED32"/>
<stop offset="0.36" stop-color="#EE2A7B"/>
<stop offset="0.44" stop-color="#D22A8A"/>
<stop offset="0.6" stop-color="#8B2AB2"/>
<stop offset="0.83" stop-color="#1B2AF0"/>
<stop offset="0.88" stop-color="#002AFF"/>
</radialGradient>
<clipPath id="clip0_1137_3928">
<rect width="32" height="32" fill="white"/>
</clipPath>
</defs>
</svg>
