<svg width="16" height="16" viewBox="0 0 16 16" fill="none" xmlns="http://www.w3.org/2000/svg">
<path d="M2.90408 2.30399C3.68008 2.30399 4.39208 2.62399 4.90408 3.12799C5.41608 3.63999 5.72808 4.34399 5.72808 5.12799C5.72808 5.90399 5.40808 6.61599 4.90408 7.12799C4.39208 7.63999 3.68808 7.95199 2.90408 7.95199C2.12808 7.95199 1.41608 7.63199 0.904078 7.12799C0.400078 6.61599 0.0800781 5.91199 0.0800781 5.12799C0.0800781 4.35199 0.400078 3.63999 0.904078 3.12799C1.41608 2.62399 2.12808 2.30399 2.90408 2.30399ZM2.90408 2.88799C2.30408 2.88799 1.74408 3.11999 1.32008 3.54399C0.896078 3.96799 0.664078 4.52799 0.664078 5.12799C0.664078 5.72799 0.896078 6.28799 1.32008 6.71199C1.74408 7.13599 2.30408 7.36799 2.90408 7.36799C3.50408 7.36799 4.06408 7.13599 4.48808 6.71199C4.91208 6.28799 5.14408 5.72799 5.14408 5.12799C5.14408 4.52799 4.91208 3.96799 4.48808 3.54399C4.06408 3.11999 3.50408 2.88799 2.90408 2.88799Z" fill="#FFFFFF"/>
<path fill-rule="evenodd" clip-rule="evenodd" d="M10.8882 7.58397H15.2002V7.40797L13.1602 5.42397H10.8882V7.58397ZM10.8882 8.30397V10.816C11.2162 10.376 11.7362 10.096 12.3282 10.096C13.0642 10.096 13.6962 10.536 13.9762 11.176H15.2002V8.30397H10.8882ZM10.1682 11.176V4.71197V3.99197H5.68816C5.59216 3.73597 5.46416 3.49597 5.31216 3.27197H10.1762C10.5762 3.27197 10.8962 3.59197 10.8962 3.99197V4.71197H13.4642L15.9202 7.10397V11.176C15.9202 11.576 15.6002 11.896 15.2002 11.896H14.1202C14.1202 12.888 13.3122 13.696 12.3202 13.696C11.3282 13.696 10.5202 12.888 10.5202 11.896H5.49616C5.49616 12.888 4.68816 13.696 3.69616 13.696C2.70416 13.696 1.89616 12.888 1.89616 11.896H1.53616C1.13616 11.896 0.816162 11.576 0.816162 11.176C0.816162 9.96797 0.816162 8.76797 0.816162 7.55997V7.35997C1.03216 7.54397 1.27216 7.69597 1.53616 7.81597V11.168H2.04816C2.32816 10.536 2.96016 10.088 3.69616 10.088C4.43216 10.088 5.06416 10.528 5.34416 11.168L10.1682 11.176ZM3.70416 12.976C4.29616 12.976 4.78416 12.496 4.78416 11.896C4.78416 11.304 4.30416 10.816 3.70416 10.816C3.11216 10.816 2.62416 11.296 2.62416 11.896C2.62416 12.496 3.11216 12.976 3.70416 12.976ZM12.3282 12.976C12.9202 12.976 13.4082 12.496 13.4082 11.896C13.4082 11.304 12.9282 10.816 12.3282 10.816C11.7362 10.816 11.2482 11.296 11.2482 11.896C11.2482 12.496 11.7282 12.976 12.3282 12.976Z" fill="#FFFFFF"/>
<path fill-rule="evenodd" clip-rule="evenodd" d="M2.90406 6.736C2.96806 6.688 3.42406 5.984 3.45606 5.928C3.59206 5.704 3.71206 5.512 3.82406 5.28C3.85606 5.208 3.89606 5.128 3.93606 5.048C4.10406 4.672 4.01606 4.28 3.80806 3.984C3.64806 3.76 3.32806 3.52 2.90406 3.528C2.09606 3.536 1.57606 4.344 1.88006 5.048C1.92806 5.168 2.04806 5.4 2.10406 5.504C2.33606 5.92 2.56006 6.264 2.83206 6.64C2.84806 6.664 2.88006 6.712 2.90406 6.736ZM2.81606 4.032C2.64006 4.056 2.50406 4.152 2.42406 4.256C2.32006 4.384 2.26406 4.552 2.29606 4.728C2.34406 5.032 2.62406 5.296 2.98406 5.248C3.28806 5.208 3.55206 4.92 3.50406 4.56C3.47206 4.256 3.18406 3.984 2.81606 4.032Z" fill="#FFFFFF"/>
</svg>
