<svg width="32" height="32" viewBox="0 0 32 32" fill="none" xmlns="http://www.w3.org/2000/svg">
<path d="M31.9989 16.0007C31.9989 7.16342 24.8357 0 15.9998 0C7.1632 0 0 7.1632 0 16.0007C0 24.8368 7.1632 32 15.9998 32C24.8355 32 31.9989 24.8368 31.9989 16.0007Z" fill="#CB2027"/>
<path d="M16.5067 7.11404C13.4804 7.11471 10.4318 8.47435 9.07792 11.3106C8.37604 12.7812 8.23856 14.5529 8.85488 16.0792C9.11647 16.7271 9.53337 17.3154 10.11 17.7187C10.3395 17.8793 10.76 18.1819 11.0597 18.101C11.3647 18.0188 11.3921 17.5819 11.4574 17.3283C11.5249 17.066 11.6784 16.747 11.5345 16.4914C11.3427 16.1509 11.0454 15.9023 10.9057 15.5212C10.719 15.0123 10.6356 14.4103 10.6675 13.8719C10.7671 12.1867 11.6994 10.6328 13.1497 9.76648C15.3971 8.42399 19.1986 8.63456 20.4651 11.242C21.0977 12.5441 20.9413 14.1632 20.5837 15.5199C20.2532 16.7741 19.5709 18.171 18.3156 18.7198C17.1799 19.2165 15.527 18.7483 15.4842 17.3132C15.4719 16.9016 15.6228 16.4892 15.7393 16.0999C15.8753 15.6451 16.0265 15.1953 16.1654 14.7414C16.3875 14.0148 16.6631 13.1861 16.4599 12.424C16.0976 11.0653 14.4178 11.0952 13.5938 12.0016C13.1306 12.5112 12.8995 13.1999 12.8518 13.8788C12.8164 14.3837 12.9623 14.8829 13.0771 15.3706C13.1243 15.5716 13.2094 15.7679 13.1782 15.9702C13.1343 16.2541 13.0396 16.5391 12.9717 16.8178C12.7279 17.8178 12.4842 18.8181 12.2404 19.8179C12.0301 20.6808 11.7618 21.5539 11.6361 22.4342C11.5254 23.2098 11.5274 24.0006 11.586 24.7807C11.6063 25.0499 11.6339 25.3184 11.6689 25.586C11.6829 25.6925 11.6753 25.941 11.7613 26.0216C11.9797 26.2266 12.4443 25.4216 12.5367 25.2925C12.9677 24.6909 13.3601 24.0559 13.6682 23.3823C14.1139 22.4081 14.3229 21.319 14.594 20.2869C14.6669 20.0093 14.7398 19.7316 14.8122 19.454C15.2638 20.2927 16.3588 20.7198 17.2578 20.7972C18.1023 20.8696 18.9909 20.7 19.767 20.3671C21.3312 19.6962 22.4458 18.3087 23.0398 16.7418C23.6811 15.05 23.9079 13.0058 23.2363 11.2895C22.6423 9.77139 21.4288 8.56214 19.9676 7.86382C18.6465 7.23258 17.2394 7.10022 15.7961 7.11359C16.5007 7.10713 17.207 7.10446 17.9116 7.11337C17.4432 7.10825 16.9746 7.11404 16.5067 7.11404C13.6063 7.11471 20.7998 7.11404 16.5067 7.11404Z" fill="white"/>
</svg>
