<svg width="21" height="20" viewBox="0 0 21 20" fill="none" xmlns="http://www.w3.org/2000/svg">
<g clip-path="url(#clip0_1126_5201)">
<path d="M13.591 11.6667H12.9327L12.6994 11.4417C13.6994 10.275 14.216 8.68334 13.9327 6.99167C13.541 4.675 11.6077 2.825 9.27435 2.54167C5.74935 2.10834 2.78268 5.075 3.21602 8.6C3.49935 10.9333 5.34935 12.8667 7.66602 13.2583C9.35768 13.5417 10.9493 13.025 12.116 12.025L12.341 12.2583V12.9167L15.8827 16.4583C16.2243 16.8 16.7827 16.8 17.1243 16.4583C17.466 16.1167 17.466 15.5583 17.1243 15.2167L13.591 11.6667ZM8.59102 11.6667C6.51602 11.6667 4.84102 9.99167 4.84102 7.91667C4.84102 5.84167 6.51602 4.16667 8.59102 4.16667C10.666 4.16667 12.341 5.84167 12.341 7.91667C12.341 9.99167 10.666 11.6667 8.59102 11.6667Z" fill="white"/>
</g>
<defs>
<clipPath id="clip0_1126_5201">
<rect width="20" height="20" fill="white" transform="translate(0.674316)"/>
</clipPath>
</defs>
</svg>
