<svg width="32" height="32" viewBox="0 0 32 32" fill="none" xmlns="http://www.w3.org/2000/svg">
<g clip-path="url(#clip0_1897_3856)">
<path d="M31.9995 15.9991C31.9995 7.163 24.8366 0 16.0002 0C7.16345 0 0 7.16278 0 15.9991C0 24.835 7.16323 32 16.0002 32C24.8363 32 31.9995 24.835 31.9995 15.9991Z" fill="black"/>
<path fill-rule="evenodd" clip-rule="evenodd" d="M25.4766 9.33325H21.5853L21.3069 9.38188V9.76266C21.3069 9.80737 21.4398 9.84502 21.4763 9.87247C21.5116 9.90305 21.6069 9.91953 21.6457 9.91953L21.9986 9.93717C22.3986 9.95678 22.5202 10.045 22.6759 10.194C22.8288 10.3482 22.8539 10.6101 22.7347 10.9783L19.2955 20.1191L19.1641 20.0791L16.979 15.076C17.0108 15.0007 17.03 14.9583 17.03 14.9583L18.8182 11.2156C18.9797 10.9066 19.1505 10.6025 19.3304 10.3038C19.5171 10.0038 19.608 9.94698 20.1174 9.92109C20.2214 9.92109 20.2614 9.86933 20.2614 9.76423V9.38541L20.2351 9.34462C20.2351 9.34462 18.0967 9.33717 17.1233 9.34462L17.1237 9.38384V9.76266C17.1237 9.80854 17.0986 9.84541 17.1331 9.87325C17.17 9.90384 17.1857 9.91913 17.2253 9.91913L17.3708 9.93835C17.7688 9.95717 17.9469 10.0736 18.001 10.1466C18.0963 10.2776 18.1406 10.4172 17.9104 10.9795L16.5331 14.0501L15.2884 11.2015C14.8806 10.2917 14.7794 10.0101 15.3943 9.95717L15.5598 9.91835C15.6782 9.91835 15.6598 9.87051 15.6598 9.78031V9.38188L15.6477 9.34933C15.6477 9.34933 13.3677 9.34933 12.3277 9.35011L12.3135 9.38933V9.78815C12.3135 9.87796 12.4002 9.90109 12.5614 9.92541C13.1379 10.0101 13.1277 10.0776 13.6967 11.3407C13.7818 11.5301 14.0332 12.1007 14.0332 12.1007L15.3312 14.9521C15.3312 14.9521 15.4782 15.3183 15.7084 15.887L13.8226 20.0948L13.7151 20.0642C13.7151 20.0642 10.7888 13.1611 9.94257 10.8517C9.85355 10.6136 9.81473 10.436 9.81473 10.3262C9.81473 10.0913 10.0037 9.96423 10.3822 9.94737L10.9575 9.92619C11.0751 9.92619 11.2677 9.876 11.2677 9.77129V9.39247L11.0943 9.35325C11.0943 9.35325 7.50964 9.34933 6.78533 9.35325L6.6665 9.39247V9.79129C6.6665 9.86266 6.76023 9.90737 6.92297 9.92619C7.36846 9.95364 7.66768 10.0325 7.80768 10.1654C7.94728 10.2987 8.09905 10.6372 8.29552 11.1634C9.35944 14.0219 11.6214 19.1226 12.7222 22.0281C13.0386 22.8211 13.4386 22.9446 13.9214 22.0034C14.419 20.9713 15.4226 18.6799 16.1547 16.9885C16.8398 18.676 17.7724 20.9583 18.2222 21.9924C18.5802 22.8199 18.9888 22.9022 19.4033 22.0171C20.4873 19.323 23.6531 11.2144 23.6531 11.2144C23.79 10.8164 23.981 10.5097 24.2272 10.287C24.4719 10.067 24.8359 9.94266 25.3461 9.91835C25.4496 9.91835 25.49 9.86541 25.49 9.76266V9.38227L25.4766 9.33325Z" fill="#F2F3F4"/>
</g>
<defs>
<clipPath id="clip0_1897_3856">
<rect width="32" height="32" fill="white"/>
</clipPath>
</defs>
</svg>
