<svg width="32" height="32" viewBox="0 0 32 32" fill="none" xmlns="http://www.w3.org/2000/svg">
<path d="M31.9995 15.9991C31.9995 7.163 24.8366 0 16.0002 0C7.16345 0 0 7.16278 0 15.9991C0 24.835 7.16323 32 16.0002 32C24.8363 32 31.9995 24.835 31.9995 15.9991Z" fill="#CC0000"/>
<path d="M20.0894 21.9056H11.9111C9.72304 21.9056 7.94922 20.1318 7.94922 17.9438V14.059C7.94922 11.871 9.72304 10.0972 11.9111 10.0972H20.0894C22.2777 10.0972 24.0515 11.871 24.0515 14.059V17.9438C24.0515 20.1318 22.2777 21.9056 20.0894 21.9056Z" fill="white"/>
<path d="M19.2727 16.0369L13.8953 18.9418C13.7155 19.0389 13.4976 18.909 13.4976 18.7049L13.4951 12.8719C13.4951 12.6671 13.7139 12.5372 13.8937 12.635L19.2733 15.5632C19.4612 15.6653 19.461 15.9351 19.2727 16.0369Z" fill="#CC0000"/>
</svg>
